<svg width="35" height="29" viewBox="0 0 35 29" fill="none" xmlns="http://www.w3.org/2000/svg">
<path d="M17.4973 11.7723L31.1864 15.1708C33.5687 14.241 35 13.0554 35 11.7723V6.30596C35 3.29268 27.1625 0.842957 17.4973 0.842957C7.8331 0.842957 0 3.29275 0 6.30596V11.7723C0 14.7867 7.83262 17.2332 17.4967 17.2332L17.4973 11.7723ZM0 17.2332V22.6962C0 25.7117 7.8331 28.157 17.4973 28.157L17.4967 22.6957C7.83262 22.6956 0 20.2487 0 17.2332ZM31.1853 20.635L17.4967 17.2332V22.6957L31.1853 26.098C33.5686 25.1637 35 23.9825 35 22.6951V17.2332C35.0011 18.5206 33.5686 19.7018 31.1853 20.635Z" fill="white"/>
</svg>
