<svg width="35" height="25" viewBox="0 0 35 25" fill="none" xmlns="http://www.w3.org/2000/svg">
<path d="M3.62533 0.166687C2.80757 0.166687 2.02332 0.491537 1.44508 1.06977C0.866842 1.64801 0.541992 2.43227 0.541992 3.25002V20.2084H3.62533C3.62533 21.435 4.1126 22.6114 4.97996 23.4787C5.84731 24.3461 7.0237 24.8334 8.25032 24.8334C9.47695 24.8334 10.6533 24.3461 11.5207 23.4787C12.388 22.6114 12.8753 21.435 12.8753 20.2084H22.1253C22.1253 21.435 22.6126 22.6114 23.48 23.4787C24.3473 24.3461 25.5237 24.8334 26.7503 24.8334C27.9769 24.8334 29.1533 24.3461 30.0207 23.4787C30.888 22.6114 31.3753 21.435 31.3753 20.2084H34.4587V12.5L29.8337 6.33335H25.2087V0.166687H3.62533ZM14.417 3.25002L20.5837 9.41669L14.417 15.5834V10.9584H5.16699V7.87502H14.417V3.25002ZM25.2087 8.64585H29.0628L32.0999 12.5H25.2087V8.64585ZM8.25032 17.8959C8.86364 17.8959 9.45183 18.1395 9.88551 18.5732C10.3192 19.0068 10.5628 19.595 10.5628 20.2084C10.5628 20.8217 10.3192 21.4099 9.88551 21.8435C9.45183 22.2772 8.86364 22.5209 8.25032 22.5209C7.63701 22.5209 7.04882 22.2772 6.61514 21.8435C6.18146 21.4099 5.93783 20.8217 5.93783 20.2084C5.93783 19.595 6.18146 19.0068 6.61514 18.5732C7.04882 18.1395 7.63701 17.8959 8.25032 17.8959ZM26.7503 17.8959C27.3636 17.8959 27.9518 18.1395 28.3855 18.5732C28.8192 19.0068 29.0628 19.595 29.0628 20.2084C29.0628 20.8217 28.8192 21.4099 28.3855 21.8435C27.9518 22.2772 27.3636 22.5209 26.7503 22.5209C26.137 22.5209 25.5488 22.2772 25.1151 21.8435C24.6815 21.4099 24.4378 20.8217 24.4378 20.2084C24.4378 19.595 24.6815 19.0068 25.1151 18.5732C25.5488 18.1395 26.137 17.8959 26.7503 17.8959Z" fill="white"/>
</svg>
