<svg width="38" height="38" viewBox="0 0 38 38" fill="none" xmlns="http://www.w3.org/2000/svg">
<path d="M35.9731 0.796875H1.93313C1.1145 0.796875 0.453125 1.45825 0.453125 2.27688V36.3169C0.453125 37.1355 1.1145 37.7969 1.93313 37.7969H35.9731C36.7918 37.7969 37.4531 37.1355 37.4531 36.3169V2.27688C37.4531 1.45825 36.7918 0.796875 35.9731 0.796875ZM34.4931 34.8369H25.9785V23.4686H30.7885L31.51 17.8862H25.9785V14.3204C25.9785 12.7016 26.4271 11.6009 28.7443 11.6009H31.6996V6.60588C31.1862 6.5365 29.4334 6.38388 27.3891 6.38388C23.1249 6.38388 20.2065 8.98775 20.2065 13.7654V17.8816H15.3872V23.464H20.2111V34.8369H3.41313V3.75688H34.4931V34.8369Z" fill="#292929"/>
</svg>
