<svg width="33" height="29" viewBox="0 0 33 29" fill="none" xmlns="http://www.w3.org/2000/svg">
<path d="M31.3506 6.24729C30.8663 5.12586 30.1679 4.10963 29.2946 3.25549C28.4207 2.3988 27.3903 1.71801 26.2595 1.25012C25.0869 0.763028 23.8292 0.513704 22.5595 0.516627C20.7781 0.516627 19.0401 1.00442 17.5298 1.92581C17.1685 2.14622 16.8252 2.3883 16.5 2.65207C16.1748 2.3883 15.8315 2.14622 15.4702 1.92581C13.9599 1.00442 12.2219 0.516627 10.4405 0.516627C9.15781 0.516627 7.91484 0.76233 6.74053 1.25012C5.60596 1.71985 4.5834 2.39553 3.70537 3.25549C2.83094 4.10867 2.13243 5.12513 1.64941 6.24729C1.14717 7.41437 0.890625 8.65373 0.890625 9.92921C0.890625 11.1324 1.13633 12.3862 1.62412 13.6617C2.03242 14.7276 2.61777 15.8333 3.36572 16.9498C4.55088 18.7167 6.18047 20.5595 8.20391 22.4275C11.557 25.5241 14.8776 27.6632 15.0186 27.7499L15.8749 28.2991C16.2543 28.5412 16.7421 28.5412 17.1215 28.2991L17.9778 27.7499C18.1188 27.6596 21.4357 25.5241 24.7925 22.4275C26.8159 20.5595 28.4455 18.7167 29.6307 16.9498C30.3786 15.8333 30.9676 14.7276 31.3723 13.6617C31.8601 12.3862 32.1058 11.1324 32.1058 9.92921C32.1094 8.65373 31.8528 7.41437 31.3506 6.24729Z" fill="white"/>
</svg>
