<svg width="35" height="37" viewBox="0 0 35 37" fill="none" xmlns="http://www.w3.org/2000/svg">
<path d="M16.6362 0.00538458C13.6666 0.0412327 7.28214 0.52923 3.7112 3.80529C1.05497 6.43724 0.127539 10.3285 0.0188381 15.1403C-0.0713606 19.9347 -0.180062 28.9383 8.49867 31.3899V35.1239C8.49867 35.1239 8.44432 36.6179 9.43188 36.9244C10.6484 37.3095 11.3411 36.16 12.4975 34.925L14.6541 32.4861C20.5922 32.9799 25.1403 31.842 25.6642 31.6732C26.8691 31.2881 33.656 30.4208 34.765 21.416C35.9029 12.1163 34.2111 6.25684 31.157 3.60639H31.1385C30.2169 2.7576 26.513 0.0585786 18.2378 0.0285124C18.2378 0.0285124 17.6238 -0.0131177 16.6362 0.00422819V0.00538458ZM16.738 2.61999C17.581 2.61421 18.0933 2.65005 18.0933 2.65005C25.0975 2.66856 28.4407 4.77666 29.2293 5.48669C31.8011 7.69077 33.1264 12.9732 32.1561 20.7372C31.2345 28.2653 25.7301 28.7417 24.7113 29.0667C24.2776 29.2055 20.2719 30.193 15.2254 29.8681C15.2254 29.8681 11.4671 34.4034 10.2922 35.5714C10.1061 35.7761 9.88865 35.8362 9.74988 35.8061C9.55098 35.7576 9.49085 35.5113 9.50241 35.1736L9.53826 28.9765C2.17782 26.9412 2.61147 19.2616 2.69011 15.2501C2.7803 11.2386 3.53311 7.95674 5.7742 5.73415C8.79123 3.00622 14.2124 2.63849 16.7357 2.61999H16.738ZM17.293 6.63036C17.2325 6.62975 17.1724 6.64113 17.1162 6.66386C17.06 6.68658 17.0089 6.7202 16.9658 6.76277C16.9227 6.80534 16.8885 6.85602 16.865 6.91188C16.8416 6.96775 16.8295 7.02771 16.8293 7.08829C16.8293 7.34732 17.0398 7.552 17.293 7.552C18.4396 7.5302 19.5791 7.7356 20.6459 8.15636C21.7127 8.57713 22.6857 9.20493 23.5086 10.0036C25.1889 11.6352 26.0076 13.8277 26.0388 16.6944C26.0388 16.9477 26.2435 17.1582 26.5025 17.1582V17.1397C26.6246 17.14 26.7419 17.092 26.8287 17.0062C26.9156 16.9204 26.965 16.8038 26.9663 16.6817C27.0224 15.3324 26.8036 13.9857 26.3231 12.7236C25.8426 11.4614 25.1105 10.3102 24.1713 9.33979C22.3407 7.55085 20.021 6.6292 17.293 6.6292V6.63036ZM11.1977 7.69077C10.8704 7.64294 10.5365 7.70865 10.2518 7.87695H10.2275C9.56632 8.2645 8.97072 8.75433 8.46282 9.32822C8.04073 9.81622 7.81177 10.31 7.75164 10.7853C7.71579 11.0686 7.74007 11.3519 7.82449 11.6225L7.85455 11.641C8.32983 13.0379 8.95082 14.3817 9.70941 15.6468C10.6866 17.4241 11.8892 19.0678 13.2873 20.5371L13.3289 20.5973L13.3948 20.6458L13.4365 20.6944L13.485 20.736C14.9597 22.1383 16.6074 23.3464 18.3881 24.3313C20.4234 25.4391 21.6584 25.9629 22.3997 26.1803V26.1919C22.6171 26.2578 22.8148 26.2879 23.0137 26.2879C23.6454 26.2416 24.2435 25.9851 24.7124 25.5593C25.2837 25.0513 25.7681 24.4533 26.1464 23.7889V23.7773C26.5014 23.109 26.3811 22.4764 25.8688 22.0485C24.8429 21.1518 23.7335 20.3552 22.5558 19.6698C21.7671 19.242 20.9657 19.501 20.6408 19.9347L19.9481 20.8077C19.5931 21.2414 18.9478 21.1812 18.9478 21.1812L18.9293 21.1928C14.1176 19.9636 12.834 15.0917 12.834 15.0917C12.834 15.0917 12.7738 14.4291 13.2191 14.0914L14.0864 13.3929C14.5015 13.0553 14.7906 12.2551 14.3454 11.4652C13.6647 10.2859 12.87 9.17622 11.9725 8.15217C11.7763 7.91075 11.501 7.7465 11.1954 7.68846L11.1977 7.69077ZM18.0933 9.06456C17.4792 9.06456 17.4792 9.99199 18.099 9.99199C18.8626 10.0044 19.6162 10.1671 20.3168 10.4709C21.0174 10.7747 21.6513 11.2135 22.1823 11.7624C22.6666 12.2967 23.0388 12.9227 23.2767 13.6035C23.5147 14.2842 23.6136 15.0057 23.5676 15.7254C23.5697 15.8472 23.6194 15.9633 23.7061 16.0489C23.7928 16.1345 23.9095 16.1827 24.0313 16.1833L24.0498 16.2076C24.1725 16.2067 24.29 16.1575 24.3767 16.0708C24.4635 15.984 24.5126 15.8666 24.5135 15.7439C24.5552 13.9064 23.9839 12.3649 22.8634 11.1299C21.737 9.89485 20.1655 9.20218 18.1592 9.06456H18.0933ZM18.853 11.5577C18.2205 11.5392 18.1962 12.4852 18.8229 12.5037C20.3471 12.5823 21.0872 13.3525 21.1843 14.9367C21.1864 15.057 21.2355 15.1716 21.3211 15.2561C21.4067 15.3406 21.522 15.3883 21.6422 15.3889H21.6607C21.7226 15.3862 21.7833 15.3713 21.8392 15.3449C21.8952 15.3186 21.9454 15.2813 21.9869 15.2353C22.0283 15.1894 22.0602 15.1356 22.0806 15.0772C22.1011 15.0188 22.1097 14.9569 22.1059 14.8951C21.9972 12.8298 20.8709 11.6664 18.8715 11.5589H18.853V11.5577Z" fill="#292929"/>
</svg>
